# xmcd
#
# Track frame offsets:
#	200
#	18262
#	41402
#
# Disc length: 801 seconds
#
# Revision: 0
# Processed by: cddbd v1.4PL0 Copyright (c) Steve Scherf et al.
# Submitted via: audiograbber 1.81.03
#
DISCID=17031f03
DTITLE=John Mayall - Mailorder Mystics [CD Single)
DYEAR=1993
DGENRE=Blues
TTITLE0=Mailorder Mystics
TTITLE1=I Could Cry
TTITLE2=Rot At Home
EXTD=
EXTT0=
EXTT1=
EXTT2=
PLAYORDER=
